<svg xmlns="http://www.w3.org/2000/svg" viewBox="0 0 64 64">
  <defs>
    <linearGradient id="bg" x1="10" y1="6" x2="56" y2="58" gradientUnits="userSpaceOnUse">
      <stop stop-color="#7c3aed"/>
      <stop offset="1" stop-color="#2563eb"/>
    </linearGradient>
  </defs>
  <rect width="64" height="64" rx="14" fill="url(#bg)"/>
  <path d="M23 23.5h18a4 4 0 0 1 4 4v13a4 4 0 0 1-4 4H23a4 4 0 0 1-4-4v-13a4 4 0 0 1 4-4Z" fill="none" stroke="#fff" stroke-width="4" stroke-linejoin="round"/>
  <path d="M27 23.5v-3a3 3 0 0 1 3-3h4a3 3 0 0 1 3 3v3" fill="none" stroke="#fff" stroke-width="4" stroke-linecap="round"/>
  <path d="M20 32.5h24M29 32.5v3h6v-3" fill="none" stroke="#fff" stroke-width="4" stroke-linecap="round" stroke-linejoin="round"/>
</svg>
